999
FreeCAD v1.1 44874 (Git)
  0
SECTION
  2
HEADER
  9
$ACADVER
  1
AC1014
  9
$ACADMAINTVER
 70
     9
  9
$DWGCODEPAGE
  3
ANSI_1252
  9
$TEXTSTYLE
  7
STANDARD
  9
$DIMSTYLE
  2
STANDARD
  9
$DIMTXSTY
  7
STANDARD
  9
$CMLSTYLE
  2
STANDARD
  9
$LUNITS
 70
2
  9
$INSUNITS
 70
4
  9
$PEXTMAX
 10
50
 20
50
 30
50
  9
$PEXTMIN
 10
0
 20
0
 30
0
  9
$HANDSEED
  5
FFFF
  0
ENDSEC
  0
SECTION
  2
CLASSES
  0
CLASS
  1
ACDBDICTIONARYWDFLT
  2
AcDbDictionaryWithDefault
  3
ObjectDBX Classes
 90
        0
280
     0
281
     0
  0
CLASS
  1
XRECORD
  2
AcDbXrecord
  3
ObjectDBX Classes
 90
        0
280
     0
281
     0
  0
CLASS
  1
LWPOLYLINE
  2
AcDbPolyline
  3
ObjectDBX Classes
 90
        0
280
     0
281
     1
  0
ENDSEC
  0
SECTION
  2
TABLES
  0
TABLE
  2
VPORT
  5
20
330
0
100
AcDbSymbolTable
 70
     1
  0
VPORT
  5
21
330
20
100
AcDbSymbolTableRecord
100
AcDbViewportTableRecord
  2
*ACTIVE
 70
     0
  0
ENDTAB
  0
TABLE
  2
LTYPE
  5
22
330
0
100
AcDbSymbolTable
 70
     1
  0
LTYPE
  5
23
330
21
100
AcDbSymbolTableRecord
100
AcDbLinetypeTableRecord
  2
BYBLOCK
 70
     0
  3

 72
    65
 73
     0
 40
0.0
  0
LTYPE
  5
24
330
21
100
AcDbSymbolTableRecord
100
AcDbLinetypeTableRecord
  2
BYLAYER
 70
     0
  3

 72
    65
 73
     0
 40
0.0
  0
LTYPE
  5
25
330
21
100
AcDbSymbolTableRecord
100
AcDbLinetypeTableRecord
  2
CONTINUOUS
 70
     0
  3
Solid line
 72
    65
 73
     0
 40
0.0
  0
ENDTAB
  0
TABLE
  2
LAYER
  5
A0C
330
0
100
AcDbSymbolTable
 70
2
  0
LAYER
  5
A0D
330
A0C
100
AcDbSymbolTableRecord
100
AcDbLayerTableRecord
  2
0
 70
   0
 62
   7
  6
CONTINUOUS
  0
LAYER
  5
A0E
330
A0C
100
AcDbSymbolTableRecord
100
AcDbLayerTableRecord
  2
View
 70
    0
 62
    7
  6
CONTINUOUS
  0
ENDTAB
  0
TABLE
  2
STYLE
  5
70
330
0
100
AcDbSymbolTable
 70
     2
  0
STYLE
  5
71
330
70
100
AcDbSymbolTableRecord
100
AcDbTextStyleTableRecord
  2
STANDARD
 70
     0
 40
0.0
 41
1.0
 50
0.0
 71
     0
 42
2.5
  3
arial.ttf
  4

  0
STYLE
  5
72
330
70
100
AcDbSymbolTableRecord
100
AcDbTextStyleTableRecord
  2
ANNOTATIVE
 70
     0
 40
0.0
 41
1.0
 50
0.0
 71
     0
 42
2.5
  3
arial.ttf
  4

  0
ENDTAB
  0
TABLE
  2
VIEW
  5
73
330
0
100
AcDbSymbolTable
 70
     0
  0
ENDTAB
  0
TABLE
  2
UCS
  5
74
330
0
100
AcDbSymbolTable
 70
     0
  0
ENDTAB
  0
TABLE
  2
APPID
  5
75
330
0
100
AcDbSymbolTable
 70
     2
  0
APPID
  5
76
330
75
100
AcDbSymbolTableRecord
100
AcDbRegAppTableRecord
  2
ACAD
 70
     0
  0
APPID
  5
77
330
75
100
AcDbSymbolTableRecord
100
AcDbRegAppTableRecord
  2
ACADANNOTATIVE
 70
     0
  0
ENDTAB
  0
TABLE
  2
DIMSTYLE
  5
78
330
0
100
AcDbSymbolTable
 70
     2
  0
DIMSTYLE
105
79
330
78
100
AcDbSymbolTableRecord
100
AcDbDimStyleTableRecord
  2
STANDARD
 70
     0
  3

  4

  5

  6

  7

 40
0.0
 41
2.5
 42
0.625
 43
3.75
 44
1.25
 45
0.0
 46
0.0
 47
0.0
 48
0.0
140
2.5
141
2.5
142
0.0
143
0.03937007874016
144
1.0
145
0.0
146
1.0
147
0.625
 71
     0
 72
     0
 73
     0
 74
     0
 75
     0
 76
     0
 77
     1
 78
     8
170
     0
171
     3
172
     1
173
     0
174
     0
175
     0
176
     0
177
     0
178
     0
270
     2
271
     2
272
     2
273
     2
274
     3
340
71
275
     0
280
     0
281
     0
282
     0
283
     0
284
     8
285
     0
286
     0
287
     3
288
     0
  0
ENDTAB
  0
TABLE
  2
BLOCK_RECORD
  5
A01
330
0
100
AcDbSymbolTable
  70
5
  0
BLOCK_RECORD
  5
A02
330
A01
100
AcDbSymbolTableRecord
100
AcDbBlockTableRecord
  2
*MODEL_SPACE
  0
BLOCK_RECORD
  5
A03
330
A01
100
AcDbSymbolTableRecord
100
AcDbBlockTableRecord
  2
*PAPER_SPACE
  0
ENDTAB
  0
ENDSEC
  0
SECTION
  2
BLOCKS
  0
BLOCK
  5
A04
330
A02
100
AcDbEntity
  8
0
100
AcDbBlockBegin
  2
*MODEL_SPACE
 70
   0
 10
0
 20
0
 30
0
  3
*MODEL_SPACE
  1
 
  0
ENDBLK
  5
A05
330
A02
100
AcDbEntity
  8
0
100
AcDbBlockEnd
  0
BLOCK
  5
A06
330
A03
100
AcDbEntity
 67
1
  8
0
100
AcDbBlockBegin
  2
*PAPER_SPACE
 70
   0
 10
0
 20
0
 30
0
  3
*PAPER_SPACE
  1
 
  0
ENDBLK
  5
A07
330
A03
100
AcDbEntity
 67
    1
  8
0
100
AcDbBlockEnd
  0
ENDSEC
  0
SECTION
  2
ENTITIES
  0
LWPOLYLINE
  5
A08
330
A02
100
AcDbEntity
100
AcDbPolyline
  8
View
 90
106
 70
0
 43
0
 10
334.500000000
 20
420.500000000
 10
337.334345941
 20
424.414963588
 10
342.005839495
 20
426.184801326
 10
346.753964963
 20
427.751699478
 10
351.499935257
 20
429.325131106
 10
356.259761814
 20
430.856080773
 10
361.047349007
 20
432.297377544
 10
365.877412297
 20
433.589035112
 10
370.743765855
 20
434.736663986
 10
375.637016806
 20
435.763829438
 10
380.549867698
 20
436.692930029
 10
385.477199621
 20
437.542011357
 10
390.415924334
 20
438.322162198
 10
395.364143413
 20
439.039669756
 10
400.320555967
 20
439.698223117
 10
405.284192181
 20
440.299928030
 10
410.254275975
 20
440.845828072
 10
415.230145854
 20
441.336194079
 10
420.211204552
 20
441.770692686
 10
425.196795818
 20
442.149691357
 10
430.185944079
 20
442.478655138
 10
435.177778302
 20
442.764056183
 10
440.171628354
 20
443.011765005
 10
445.166981635
 20
443.227104466
 10
450.163448299
 20
443.414900991
 10
455.160733500
 20
443.579532151
 10
460.158615320
 20
443.724970304
 10
465.156927271
 20
443.854822291
 10
470.155544476
 20
443.972365304
 10
475.154372790
 20
444.080579173
 10
480.153341035
 20
444.182136728
 10
485.152427214
 20
444.277705933
 10
490.151655734
 20
444.365500676
 10
495.151041829
 20
444.443794058
 10
500.150587539
 20
444.511109728
 10
505.150282570
 20
444.566209855
 10
510.150105708
 20
444.608078820
 10
515.150026556
 20
444.635904205
 10
520.150007399
 20
444.649056425
 10
525.150005046
 20
444.647068062
 10
530.149972555
 20
444.629613672
 10
535.149860777
 20
444.596490640
 10
540.149619679
 20
444.547601418
 10
545.149199449
 20
444.482937361
 10
550.148551380
 20
444.402564226
 10
555.147629170
 20
444.306639529
 10
560.146400712
 20
444.195886967
 10
565.144850274
 20
444.071437948
 10
570.142969627
 20
443.934358861
 10
575.140756342
 20
443.785639165
 10
580.138212578
 20
443.626195328
 10
585.135344071
 20
443.456875051
 10
590.132159286
 20
443.278461604
 10
595.128668724
 20
443.091678152
 10
600.124884350
 20
442.897192007
 10
605.120819133
 20
442.695618716
 10
610.116486671
 20
442.487525975
 10
615.111900897
 20
442.273437319
 10
620.107075844
 20
442.053835594
 10
625.102025463
 20
441.829166189
 10
630.096763480
 20
441.599840049
 10
635.091303294
 20
441.366236457
 10
640.085657898
 20
441.128705602
 10
645.079839822
 20
440.887570948
 10
650.073861095
 20
440.643131410
 10
655.067733225
 20
440.395663347
 10
660.061467185
 20
440.145422354
 10
665.055061992
 20
439.892420128
 10
670.048479724
 20
439.635947726
 10
675.041678627
 20
439.375250622
 10
680.034621435
 20
439.109694767
 10
685.027275299
 20
438.838761619
 10
690.019611651
 20
438.562040139
 10
695.011606016
 20
438.279216859
 10
700.003237788
 20
437.990064967
 10
704.994489962
 20
437.694433159
 10
709.985348857
 20
437.392234789
 10
714.975803817
 20
437.083437699
 10
719.965846914
 20
436.768054941
 10
724.955472649
 20
436.446136492
 10
729.944677672
 20
436.117762008
 10
734.933460511
 20
435.783034551
 10
739.921821322
 20
435.442075262
 10
744.909761659
 20
435.095018854
 10
749.897284267
 20
434.742009868
 10
754.884392890
 20
434.383199569
 10
759.871092110
 20
434.018743405
 10
764.857387193
 20
433.648798954
 10
769.843283962
 20
433.273524265
 10
774.828788686
 20
432.893076541
 10
779.813907978
 20
432.507611112
 10
784.798648713
 20
432.117280631
 10
789.783017953
 20
431.722234471
 10
794.767022889
 20
431.322618274
 10
799.750670784
 20
430.918573634
 10
804.733968930
 20
430.510237881
 10
809.716924614
 20
430.097743946
 10
814.699545082
 20
429.681220297
 10
819.681837516
 20
429.260790925
 10
824.663809014
 20
428.836575377
 10
829.645466569
 20
428.408688813
 10
834.626817058
 20
427.977242093
 10
839.607867232
 20
427.542341883
 10
844.588623705
 20
427.104090771
 10
849.569092951
 20
426.662587397
 10
854.500000000
 20
426.222342000
  0
LINE
  5
A09
330
A02
100
AcDbEntity
  8
View
100
AcDbLine
 10
854.500000000
 20
420.500000000
 30
0.000000000
 11
854.500000000
 21
426.222342000
 31
0.000000000
  0
LINE
  5
A0A
330
A02
100
AcDbEntity
  8
View
100
AcDbLine
 10
854.500000000
 20
414.777658000
 30
0.000000000
 11
854.500000000
 21
420.500000000
 31
0.000000000
  0
LWPOLYLINE
  5
A0B
330
A02
100
AcDbEntity
100
AcDbPolyline
  8
View
 90
106
 70
0
 43
0
 10
334.500000000
 20
420.500000000
 10
337.334345941
 20
416.585036412
 10
342.005839495
 20
414.815198674
 10
346.753964963
 20
413.248300522
 10
351.499935257
 20
411.674868894
 10
356.259761814
 20
410.143919227
 10
361.047349007
 20
408.702622456
 10
365.877412297
 20
407.410964888
 10
370.743765855
 20
406.263336014
 10
375.637016806
 20
405.236170562
 10
380.549867698
 20
404.307069971
 10
385.477199621
 20
403.457988643
 10
390.415924334
 20
402.677837802
 10
395.364143413
 20
401.960330244
 10
400.320555967
 20
401.301776883
 10
405.284192181
 20
400.700071970
 10
410.254275975
 20
400.154171928
 10
415.230145854
 20
399.663805921
 10
420.211204552
 20
399.229307314
 10
425.196795818
 20
398.850308643
 10
430.185944079
 20
398.521344862
 10
435.177778302
 20
398.235943817
 10
440.171628354
 20
397.988234995
 10
445.166981635
 20
397.772895534
 10
450.163448299
 20
397.585099009
 10
455.160733500
 20
397.420467849
 10
460.158615320
 20
397.275029696
 10
465.156927271
 20
397.145177709
 10
470.155544476
 20
397.027634696
 10
475.154372790
 20
396.919420827
 10
480.153341035
 20
396.817863272
 10
485.152427214
 20
396.722294067
 10
490.151655734
 20
396.634499324
 10
495.151041829
 20
396.556205942
 10
500.150587539
 20
396.488890272
 10
505.150282570
 20
396.433790145
 10
510.150105708
 20
396.391921180
 10
515.150026556
 20
396.364095795
 10
520.150007399
 20
396.350943575
 10
525.150005046
 20
396.352931938
 10
530.149972555
 20
396.370386328
 10
535.149860777
 20
396.403509360
 10
540.149619679
 20
396.452398582
 10
545.149199449
 20
396.517062639
 10
550.148551380
 20
396.597435774
 10
555.147629170
 20
396.693360471
 10
560.146400712
 20
396.804113033
 10
565.144850274
 20
396.928562052
 10
570.142969627
 20
397.065641139
 10
575.140756342
 20
397.214360835
 10
580.138212578
 20
397.373804672
 10
585.135344071
 20
397.543124949
 10
590.132159286
 20
397.721538396
 10
595.128668724
 20
397.908321848
 10
600.124884350
 20
398.102807993
 10
605.120819133
 20
398.304381284
 10
610.116486671
 20
398.512474025
 10
615.111900897
 20
398.726562681
 10
620.107075844
 20
398.946164406
 10
625.102025463
 20
399.170833811
 10
630.096763480
 20
399.400159951
 10
635.091303294
 20
399.633763543
 10
640.085657898
 20
399.871294398
 10
645.079839822
 20
400.112429052
 10
650.073861095
 20
400.356868590
 10
655.067733225
 20
400.604336653
 10
660.061467185
 20
400.854577646
 10
665.055061992
 20
401.107579872
 10
670.048479724
 20
401.364052274
 10
675.041678627
 20
401.624749378
 10
680.034621435
 20
401.890305233
 10
685.027275299
 20
402.161238381
 10
690.019611651
 20
402.437959861
 10
695.011606016
 20
402.720783141
 10
700.003237788
 20
403.009935033
 10
704.994489962
 20
403.305566841
 10
709.985348857
 20
403.607765211
 10
714.975803817
 20
403.916562301
 10
719.965846914
 20
404.231945059
 10
724.955472649
 20
404.553863508
 10
729.944677672
 20
404.882237992
 10
734.933460511
 20
405.216965449
 10
739.921821322
 20
405.557924738
 10
744.909761659
 20
405.904981146
 10
749.897284267
 20
406.257990132
 10
754.884392890
 20
406.616800431
 10
759.871092110
 20
406.981256595
 10
764.857387193
 20
407.351201046
 10
769.843283962
 20
407.726475735
 10
774.828788686
 20
408.106923459
 10
779.813907978
 20
408.492388888
 10
784.798648713
 20
408.882719369
 10
789.783017953
 20
409.277765529
 10
794.767022889
 20
409.677381726
 10
799.750670784
 20
410.081426366
 10
804.733968930
 20
410.489762119
 10
809.716924614
 20
410.902256054
 10
814.699545082
 20
411.318779703
 10
819.681837516
 20
411.739209075
 10
824.663809014
 20
412.163424623
 10
829.645466569
 20
412.591311187
 10
834.626817058
 20
413.022757907
 10
839.607867232
 20
413.457658117
 10
844.588623705
 20
413.895909229
 10
849.569092951
 20
414.337412603
 10
854.500000000
 20
414.777658000
  0
ENDSEC
  0
SECTION
  2
OBJECTS
  0
DICTIONARY
  5
F000
330
0
100
AcDbDictionary
  3
ACAD_GROUP
350
F001
  0
DICTIONARY
  5
F001
330
F000
100
AcDbDictionary
  0
ENDSEC
  0
EOF