999
FreeCAD v1.0 39319 (Git)
  0
SECTION
  2
HEADER
  9
$ACADVER
  1
AC1014
  9
$ACADMAINTVER
 70
     9
  9
$DWGCODEPAGE
  3
ANSI_1252
  9
$TEXTSTYLE
  7
STANDARD
  9
$DIMSTYLE
  2
STANDARD
  9
$DIMTXSTY
  7
STANDARD
  9
$CMLSTYLE
  2
STANDARD
  9
$LUNITS
 70
2
  9
$INSUNITS
 70
4
  9
$PEXTMAX
 10
50
 20
50
 30
50
  9
$PEXTMIN
 10
0
 20
0
 30
0
  9
$HANDSEED
  5
FFFF
  0
ENDSEC
  0
SECTION
  2
CLASSES
  0
CLASS
  1
ACDBDICTIONARYWDFLT
  2
AcDbDictionaryWithDefault
  3
ObjectDBX Classes
 90
        0
280
     0
281
     0
  0
CLASS
  1
XRECORD
  2
AcDbXrecord
  3
ObjectDBX Classes
 90
        0
280
     0
281
     0
  0
CLASS
  1
LWPOLYLINE
  2
AcDbPolyline
  3
ObjectDBX Classes
 90
        0
280
     0
281
     1
  0
ENDSEC
  0
SECTION
  2
TABLES
  0
TABLE
  2
VPORT
  5
20
330
0
100
AcDbSymbolTable
 70
     1
  0
VPORT
  5
21
330
20
100
AcDbSymbolTableRecord
100
AcDbViewportTableRecord
  2
*ACTIVE
 70
     0
  0
ENDTAB
  0
TABLE
  2
LTYPE
  5
22
330
0
100
AcDbSymbolTable
 70
     1
  0
LTYPE
  5
23
330
21
100
AcDbSymbolTableRecord
100
AcDbLinetypeTableRecord
  2
BYBLOCK
 70
     0
  3

 72
    65
 73
     0
 40
0.0
  0
LTYPE
  5
24
330
21
100
AcDbSymbolTableRecord
100
AcDbLinetypeTableRecord
  2
BYLAYER
 70
     0
  3

 72
    65
 73
     0
 40
0.0
  0
LTYPE
  5
25
330
21
100
AcDbSymbolTableRecord
100
AcDbLinetypeTableRecord
  2
CONTINUOUS
 70
     0
  3
Solid line
 72
    65
 73
     0
 40
0.0
  0
ENDTAB
  0
TABLE
  2
LAYER
  5
A0A
330
0
100
AcDbSymbolTable
 70
2
  0
LAYER
  5
A0B
330
A0A
100
AcDbSymbolTableRecord
100
AcDbLayerTableRecord
  2
0
 70
   0
 62
   7
  6
CONTINUOUS
  0
LAYER
  5
A0C
330
A0A
100
AcDbSymbolTableRecord
100
AcDbLayerTableRecord
  2
View102
 70
    0
 62
    7
  6
CONTINUOUS
  0
ENDTAB
  0
TABLE
  2
STYLE
  5
70
330
0
100
AcDbSymbolTable
 70
     2
  0
STYLE
  5
71
330
70
100
AcDbSymbolTableRecord
100
AcDbTextStyleTableRecord
  2
STANDARD
 70
     0
 40
0.0
 41
1.0
 50
0.0
 71
     0
 42
2.5
  3
arial.ttf
  4

  0
STYLE
  5
72
330
70
100
AcDbSymbolTableRecord
100
AcDbTextStyleTableRecord
  2
ANNOTATIVE
 70
     0
 40
0.0
 41
1.0
 50
0.0
 71
     0
 42
2.5
  3
arial.ttf
  4

  0
ENDTAB
  0
TABLE
  2
VIEW
  5
73
330
0
100
AcDbSymbolTable
 70
     0
  0
ENDTAB
  0
TABLE
  2
UCS
  5
74
330
0
100
AcDbSymbolTable
 70
     0
  0
ENDTAB
  0
TABLE
  2
APPID
  5
75
330
0
100
AcDbSymbolTable
 70
     2
  0
APPID
  5
76
330
75
100
AcDbSymbolTableRecord
100
AcDbRegAppTableRecord
  2
ACAD
 70
     0
  0
APPID
  5
77
330
75
100
AcDbSymbolTableRecord
100
AcDbRegAppTableRecord
  2
ACADANNOTATIVE
 70
     0
  0
ENDTAB
  0
TABLE
  2
DIMSTYLE
  5
78
330
0
100
AcDbSymbolTable
 70
     2
  0
DIMSTYLE
105
79
330
78
100
AcDbSymbolTableRecord
100
AcDbDimStyleTableRecord
  2
STANDARD
 70
     0
  3

  4

  5

  6

  7

 40
0.0
 41
2.5
 42
0.625
 43
3.75
 44
1.25
 45
0.0
 46
0.0
 47
0.0
 48
0.0
140
2.5
141
2.5
142
0.0
143
0.03937007874016
144
1.0
145
0.0
146
1.0
147
0.625
 71
     0
 72
     0
 73
     0
 74
     0
 75
     0
 76
     0
 77
     1
 78
     8
170
     0
171
     3
172
     1
173
     0
174
     0
175
     0
176
     0
177
     0
178
     0
270
     2
271
     2
272
     2
273
     2
274
     3
340
71
275
     0
280
     0
281
     0
282
     0
283
     0
284
     8
285
     0
286
     0
287
     3
288
     0
  0
ENDTAB
  0
TABLE
  2
BLOCK_RECORD
  5
A01
330
0
100
AcDbSymbolTable
  70
5
  0
BLOCK_RECORD
  5
A02
330
A01
100
AcDbSymbolTableRecord
100
AcDbBlockTableRecord
  2
*MODEL_SPACE
  0
BLOCK_RECORD
  5
A03
330
A01
100
AcDbSymbolTableRecord
100
AcDbBlockTableRecord
  2
*PAPER_SPACE
  0
ENDTAB
  0
ENDSEC
  0
SECTION
  2
BLOCKS
  0
BLOCK
  5
A04
330
A02
100
AcDbEntity
  8
0
100
AcDbBlockBegin
  2
*MODEL_SPACE
 70
   0
 10
0
 20
0
 30
0
  3
*MODEL_SPACE
  1
 
  0
ENDBLK
  5
A05
330
A02
100
AcDbEntity
  8
0
100
AcDbBlockEnd
  0
BLOCK
  5
A06
330
A03
100
AcDbEntity
 67
1
  8
0
100
AcDbBlockBegin
  2
*PAPER_SPACE
 70
   0
 10
0
 20
0
 30
0
  3
*PAPER_SPACE
  1
 
  0
ENDBLK
  5
A07
330
A03
100
AcDbEntity
 67
    1
  8
0
100
AcDbBlockEnd
  0
ENDSEC
  0
SECTION
  2
ENTITIES
  0
SPLINE
  5
A08
330
A02
100
AcDbEntity
  8
View102
100
AcDbSpline
210
0
220
0
230
1
 70
8
 71
3
 72
80
 73
76
 74
0
 40
0.000000000
 40
0.000000000
 40
0.000000000
 40
0.000000000
 40
0.040000000
 40
0.040000000
 40
0.040000000
 40
0.080000000
 40
0.080000000
 40
0.080000000
 40
0.120000000
 40
0.120000000
 40
0.120000000
 40
0.160000000
 40
0.160000000
 40
0.160000000
 40
0.200000000
 40
0.200000000
 40
0.200000000
 40
0.240000000
 40
0.240000000
 40
0.240000000
 40
0.280000000
 40
0.280000000
 40
0.280000000
 40
0.320000000
 40
0.320000000
 40
0.320000000
 40
0.360000000
 40
0.360000000
 40
0.360000000
 40
0.400000000
 40
0.400000000
 40
0.400000000
 40
0.440000000
 40
0.440000000
 40
0.440000000
 40
0.480000000
 40
0.480000000
 40
0.480000000
 40
0.520000000
 40
0.520000000
 40
0.520000000
 40
0.560000000
 40
0.560000000
 40
0.560000000
 40
0.600000000
 40
0.600000000
 40
0.600000000
 40
0.640000000
 40
0.640000000
 40
0.640000000
 40
0.680000000
 40
0.680000000
 40
0.680000000
 40
0.720000000
 40
0.720000000
 40
0.720000000
 40
0.760000000
 40
0.760000000
 40
0.760000000
 40
0.800000000
 40
0.800000000
 40
0.800000000
 40
0.840000000
 40
0.840000000
 40
0.840000000
 40
0.880000000
 40
0.880000000
 40
0.880000000
 40
0.920000000
 40
0.920000000
 40
0.920000000
 40
0.960000000
 40
0.960000000
 40
0.960000000
 40
1.000000000
 40
1.000000000
 40
1.000000000
 40
1.000000000
 10
448.999787892
 20
614.475131321
 30
0.000000000
 10
449.261087892
 20
616.530380321
 30
0.000000000
 10
449.931737892
 20
617.610249821
 30
0.000000000
 10
450.647712892
 20
618.487230071
 30
0.000000000
 10
451.363687892
 20
619.364210321
 30
0.000000000
 10
452.124987892
 20
620.038301321
 30
0.000000000
 10
453.013637892
 20
620.683053321
 30
0.000000000
 10
453.902287892
 20
621.327805321
 30
0.000000000
 10
454.918287892
 20
621.943218321
 30
0.000000000
 10
456.111787892
 20
622.564799821
 30
0.000000000
 10
457.305287892
 20
623.186381321
 30
0.000000000
 10
458.676287892
 20
623.814131321
 30
0.000000000
 10
460.235887892
 20
624.430071321
 30
0.000000000
 10
461.795487892
 20
625.046011321
 30
0.000000000
 10
463.543687892
 20
625.650141321
 30
0.000000000
 10
465.402337892
 20
626.207796321
 30
0.000000000
 10
467.258112892
 20
626.764475488
 30
0.000000000
 10
469.232962892
 20
627.277607155
 30
0.000000000
 10
471.326887892
 20
627.747191321
 30
0.000000000
 10
473.423687892
 20
628.217751321
 30
0.000000000
 10
475.648187892
 20
628.647691321
 30
0.000000000
 10
478.055687892
 20
629.037006321
 30
0.000000000
 10
480.463187892
 20
629.426321321
 30
0.000000000
 10
483.053687892
 20
629.775011321
 30
0.000000000
 10
485.527487892
 20
630.062571321
 30
0.000000000
 10
488.001287892
 20
630.350131321
 30
0.000000000
 10
490.358387892
 20
630.576561321
 30
0.000000000
 10
493.096637892
 20
630.765421321
 30
0.000000000
 10
495.834887892
 20
630.954281321
 30
0.000000000
 10
498.954287892
 20
631.105571321
 30
0.000000000
 10
501.904457892
 20
631.195731321
 30
0.000000000
 10
504.854627892
 20
631.285891321
 30
0.000000000
 10
507.635567892
 20
631.314921321
 30
0.000000000
 10
510.104157892
 20
631.297621321
 30
0.000000000
 10
512.572747892
 20
631.280321321
 30
0.000000000
 10
514.728987892
 20
631.216691321
 30
0.000000000
 10
516.413807892
 20
631.173266321
 30
0.000000000
 10
518.098627892
 20
631.129841321
 30
0.000000000
 10
519.312027892
 20
631.106621321
 30
0.000000000
 10
520.838937892
 20
631.039856321
 30
0.000000000
 10
522.365847892
 20
630.973091321
 30
0.000000000
 10
524.206267892
 20
630.862781321
 30
0.000000000
 10
526.590297892
 20
630.706091321
 30
0.000000000
 10
528.974327892
 20
630.549401321
 30
0.000000000
 10
531.901967892
 20
630.346331321
 30
0.000000000
 10
534.127325892
 20
630.186726321
 30
0.000000000
 10
536.352683892
 20
630.027121321
 30
0.000000000
 10
537.875759892
 20
629.910981321
 30
0.000000000
 10
540.063434892
 20
629.707661321
 30
0.000000000
 10
542.251109892
 20
629.504341321
 30
0.000000000
 10
545.103383892
 20
629.213841321
 30
0.000000000
 10
547.687765892
 20
628.932156321
 30
0.000000000
 10
550.272147892
 20
628.650471321
 30
0.000000000
 10
552.588637892
 20
628.377601321
 30
0.000000000
 10
555.283507892
 20
628.043596321
 30
0.000000000
 10
557.978377892
 20
627.709591321
 30
0.000000000
 10
561.051627892
 20
627.314451321
 30
0.000000000
 10
564.444087892
 20
626.849681321
 30
0.000000000
 10
567.836547892
 20
626.384911321
 30
0.000000000
 10
571.548217892
 20
625.850511321
 30
0.000000000
 10
574.757552892
 20
625.359591321
 30
0.000000000
 10
577.966887892
 20
624.868671321
 30
0.000000000
 10
580.673887892
 20
624.421231321
 30
0.000000000
 10
583.917987892
 20
623.860456321
 30
0.000000000
 10
587.162087892
 20
623.299681321
 30
0.000000000
 10
590.943287892
 20
622.625571321
 30
0.000000000
 10
594.872687892
 20
621.884716321
 30
0.000000000
 10
598.802087892
 20
621.143861321
 30
0.000000000
 10
602.879687892
 20
620.336261321
 30
0.000000000
 10
606.437387892
 20
619.607234321
 30
0.000000000
 10
609.995087892
 20
618.878207321
 30
0.000000000
 10
613.032887892
 20
618.227753321
 30
0.000000000
 10
616.119362892
 20
617.554181321
 30
0.000000000
 10
619.205837892
 20
616.880609321
 30
0.000000000
 10
622.340987892
 20
616.183919321
 30
0.000000000
 10
629.783687892
 20
614.405471321
 30
0.000000000
  0
SPLINE
  5
A09
330
A02
100
AcDbEntity
  8
View102
100
AcDbSpline
210
0
220
0
230
1
 70
8
 71
3
 72
80
 73
76
 74
0
 40
0.000000000
 40
0.000000000
 40
0.000000000
 40
0.000000000
 40
0.040000000
 40
0.040000000
 40
0.040000000
 40
0.080000000
 40
0.080000000
 40
0.080000000
 40
0.120000000
 40
0.120000000
 40
0.120000000
 40
0.160000000
 40
0.160000000
 40
0.160000000
 40
0.200000000
 40
0.200000000
 40
0.200000000
 40
0.240000000
 40
0.240000000
 40
0.240000000
 40
0.280000000
 40
0.280000000
 40
0.280000000
 40
0.320000000
 40
0.320000000
 40
0.320000000
 40
0.360000000
 40
0.360000000
 40
0.360000000
 40
0.400000000
 40
0.400000000
 40
0.400000000
 40
0.440000000
 40
0.440000000
 40
0.440000000
 40
0.480000000
 40
0.480000000
 40
0.480000000
 40
0.520000000
 40
0.520000000
 40
0.520000000
 40
0.560000000
 40
0.560000000
 40
0.560000000
 40
0.600000000
 40
0.600000000
 40
0.600000000
 40
0.640000000
 40
0.640000000
 40
0.640000000
 40
0.680000000
 40
0.680000000
 40
0.680000000
 40
0.720000000
 40
0.720000000
 40
0.720000000
 40
0.760000000
 40
0.760000000
 40
0.760000000
 40
0.800000000
 40
0.800000000
 40
0.800000000
 40
0.840000000
 40
0.840000000
 40
0.840000000
 40
0.880000000
 40
0.880000000
 40
0.880000000
 40
0.920000000
 40
0.920000000
 40
0.920000000
 40
0.960000000
 40
0.960000000
 40
0.960000000
 40
1.000000000
 40
1.000000000
 40
1.000000000
 40
1.000000000
 10
448.999787892
 20
614.475131321
 30
0.000000000
 10
449.644787892
 20
612.505721321
 30
0.000000000
 10
450.516437892
 20
611.570801321
 30
0.000000000
 10
451.369912892
 20
610.847621321
 30
0.000000000
 10
452.223387892
 20
610.124441321
 30
0.000000000
 10
453.058687892
 20
609.613001321
 30
0.000000000
 10
454.053937892
 20
609.133586321
 30
0.000000000
 10
455.049096225
 20
608.654531321
 30
0.000000000
 10
456.204479558
 20
608.206421321
 30
0.000000000
 10
457.520087892
 20
607.789256321
 30
0.000000000
 10
458.835787892
 20
607.371731321
 30
0.000000000
 10
460.311987892
 20
606.984071321
 30
0.000000000
 10
461.716037892
 20
606.670386321
 30
0.000000000
 10
463.120087892
 20
606.356701321
 30
0.000000000
 10
464.451987892
 20
606.116991321
 30
0.000000000
 10
465.734187892
 20
605.910861321
 30
0.000000000
 10
467.016387892
 20
605.704731321
 30
0.000000000
 10
468.248887892
 20
605.532181321
 30
0.000000000
 10
469.409537892
 20
605.377181321
 30
0.000000000
 10
470.570187892
 20
605.222181321
 30
0.000000000
 10
471.658987892
 20
605.084731321
 30
0.000000000
 10
473.287937892
 20
604.945576321
 30
0.000000000
 10
474.916887892
 20
604.806421321
 30
0.000000000
 10
477.085987892
 20
604.665561321
 30
0.000000000
 10
479.387987892
 20
604.549196321
 30
0.000000000
 10
481.689987892
 20
604.432831321
 30
0.000000000
 10
484.124887892
 20
604.340961321
 30
0.000000000
 10
486.594837892
 20
604.289741321
 30
0.000000000
 10
489.064787892
 20
604.238521321
 30
0.000000000
 10
491.569787892
 20
604.227951321
 30
0.000000000
 10
494.560737892
 20
604.256071321
 30
0.000000000
 10
497.551687892
 20
604.284191321
 30
0.000000000
 10
501.028587892
 20
604.351001321
 30
0.000000000
 10
504.139302892
 20
604.426716321
 30
0.000000000
 10
507.250017892
 20
604.502431321
 30
0.000000000
 10
509.994547892
 20
604.587051321
 30
0.000000000
 10
512.612352892
 20
604.687506321
 30
0.000000000
 10
515.230157892
 20
604.787961321
 30
0.000000000
 10
517.721237892
 20
604.904251321
 30
0.000000000
 10
520.375897892
 20
605.038161321
 30
0.000000000
 10
523.030557892
 20
605.172071321
 30
0.000000000
 10
525.848797892
 20
605.323601321
 30
0.000000000
 10
528.485828892
 20
605.475136321
 30
0.000000000
 10
531.122859892
 20
605.626671321
 30
0.000000000
 10
533.578681892
 20
605.778211321
 30
0.000000000
 10
536.117146892
 20
605.947391321
 30
0.000000000
 10
538.655611892
 20
606.116571321
 30
0.000000000
 10
541.276719892
 20
606.303391321
 30
0.000000000
 10
543.911953892
 20
606.490216321
 30
0.000000000
 10
546.547187892
 20
606.677041321
 30
0.000000000
 10
549.196547892
 20
606.863871321
 30
0.000000000
 10
551.807037892
 20
607.059506321
 30
0.000000000
 10
554.418659558
 20
607.255142155
 30
0.000000000
 10
556.988016225
 20
607.459580488
 30
0.000000000
 10
559.515107892
 20
607.672821321
 30
0.000000000
 10
562.041067892
 20
607.886061321
 30
0.000000000
 10
564.521367892
 20
608.108101321
 30
0.000000000
 10
566.932887892
 20
608.314251321
 30
0.000000000
 10
569.344407892
 20
608.520401321
 30
0.000000000
 10
571.687147892
 20
608.710661321
 30
0.000000000
 10
574.165517892
 20
608.922076321
 30
0.000000000
 10
576.643887892
 20
609.133491321
 30
0.000000000
 10
579.257887892
 20
609.366061321
 30
0.000000000
 10
581.866637892
 20
609.609316321
 30
0.000000000
 10
584.475387892
 20
609.852571321
 30
0.000000000
 10
587.078887892
 20
610.106511321
 30
0.000000000
 10
590.030937892
 20
610.383196321
 30
0.000000000
 10
592.982987892
 20
610.659881321
 30
0.000000000
 10
596.283587892
 20
610.959311321
 30
0.000000000
 10
599.963087892
 20
611.309906321
 30
0.000000000
 10
603.642587892
 20
611.660501321
 30
0.000000000
 10
607.700987892
 20
612.062261321
 30
0.000000000
 10
612.438662892
 20
612.535458821
 30
0.000000000
 10
617.176337892
 20
613.008656321
 30
0.000000000
 10
622.593287892
 20
613.553291321
 30
0.000000000
 10
629.783687892
 20
614.405471321
 30
0.000000000
  0
ENDSEC
  0
SECTION
  2
OBJECTS
  0
DICTIONARY
  5
F000
330
0
100
AcDbDictionary
  3
ACAD_GROUP
350
F001
  0
DICTIONARY
  5
F001
330
F000
100
AcDbDictionary
  0
ENDSEC
  0
EOF