999
FreeCAD v1.0 39319 (Git)
  0
SECTION
  2
HEADER
  9
$ACADVER
  1
AC1014
  9
$ACADMAINTVER
 70
     9
  9
$DWGCODEPAGE
  3
ANSI_1252
  9
$TEXTSTYLE
  7
STANDARD
  9
$DIMSTYLE
  2
STANDARD
  9
$DIMTXSTY
  7
STANDARD
  9
$CMLSTYLE
  2
STANDARD
  9
$LUNITS
 70
2
  9
$INSUNITS
 70
4
  9
$PEXTMAX
 10
50
 20
50
 30
50
  9
$PEXTMIN
 10
0
 20
0
 30
0
  9
$HANDSEED
  5
FFFF
  0
ENDSEC
  0
SECTION
  2
CLASSES
  0
CLASS
  1
ACDBDICTIONARYWDFLT
  2
AcDbDictionaryWithDefault
  3
ObjectDBX Classes
 90
        0
280
     0
281
     0
  0
CLASS
  1
XRECORD
  2
AcDbXrecord
  3
ObjectDBX Classes
 90
        0
280
     0
281
     0
  0
CLASS
  1
LWPOLYLINE
  2
AcDbPolyline
  3
ObjectDBX Classes
 90
        0
280
     0
281
     1
  0
ENDSEC
  0
SECTION
  2
TABLES
  0
TABLE
  2
VPORT
  5
20
330
0
100
AcDbSymbolTable
 70
     1
  0
VPORT
  5
21
330
20
100
AcDbSymbolTableRecord
100
AcDbViewportTableRecord
  2
*ACTIVE
 70
     0
  0
ENDTAB
  0
TABLE
  2
LTYPE
  5
22
330
0
100
AcDbSymbolTable
 70
     1
  0
LTYPE
  5
23
330
21
100
AcDbSymbolTableRecord
100
AcDbLinetypeTableRecord
  2
BYBLOCK
 70
     0
  3

 72
    65
 73
     0
 40
0.0
  0
LTYPE
  5
24
330
21
100
AcDbSymbolTableRecord
100
AcDbLinetypeTableRecord
  2
BYLAYER
 70
     0
  3

 72
    65
 73
     0
 40
0.0
  0
LTYPE
  5
25
330
21
100
AcDbSymbolTableRecord
100
AcDbLinetypeTableRecord
  2
CONTINUOUS
 70
     0
  3
Solid line
 72
    65
 73
     0
 40
0.0
  0
ENDTAB
  0
TABLE
  2
LAYER
  5
A0A
330
0
100
AcDbSymbolTable
 70
2
  0
LAYER
  5
A0B
330
A0A
100
AcDbSymbolTableRecord
100
AcDbLayerTableRecord
  2
0
 70
   0
 62
   7
  6
CONTINUOUS
  0
LAYER
  5
A0C
330
A0A
100
AcDbSymbolTableRecord
100
AcDbLayerTableRecord
  2
View102
 70
    0
 62
    7
  6
CONTINUOUS
  0
ENDTAB
  0
TABLE
  2
STYLE
  5
70
330
0
100
AcDbSymbolTable
 70
     2
  0
STYLE
  5
71
330
70
100
AcDbSymbolTableRecord
100
AcDbTextStyleTableRecord
  2
STANDARD
 70
     0
 40
0.0
 41
1.0
 50
0.0
 71
     0
 42
2.5
  3
arial.ttf
  4

  0
STYLE
  5
72
330
70
100
AcDbSymbolTableRecord
100
AcDbTextStyleTableRecord
  2
ANNOTATIVE
 70
     0
 40
0.0
 41
1.0
 50
0.0
 71
     0
 42
2.5
  3
arial.ttf
  4

  0
ENDTAB
  0
TABLE
  2
VIEW
  5
73
330
0
100
AcDbSymbolTable
 70
     0
  0
ENDTAB
  0
TABLE
  2
UCS
  5
74
330
0
100
AcDbSymbolTable
 70
     0
  0
ENDTAB
  0
TABLE
  2
APPID
  5
75
330
0
100
AcDbSymbolTable
 70
     2
  0
APPID
  5
76
330
75
100
AcDbSymbolTableRecord
100
AcDbRegAppTableRecord
  2
ACAD
 70
     0
  0
APPID
  5
77
330
75
100
AcDbSymbolTableRecord
100
AcDbRegAppTableRecord
  2
ACADANNOTATIVE
 70
     0
  0
ENDTAB
  0
TABLE
  2
DIMSTYLE
  5
78
330
0
100
AcDbSymbolTable
 70
     2
  0
DIMSTYLE
105
79
330
78
100
AcDbSymbolTableRecord
100
AcDbDimStyleTableRecord
  2
STANDARD
 70
     0
  3

  4

  5

  6

  7

 40
0.0
 41
2.5
 42
0.625
 43
3.75
 44
1.25
 45
0.0
 46
0.0
 47
0.0
 48
0.0
140
2.5
141
2.5
142
0.0
143
0.03937007874016
144
1.0
145
0.0
146
1.0
147
0.625
 71
     0
 72
     0
 73
     0
 74
     0
 75
     0
 76
     0
 77
     1
 78
     8
170
     0
171
     3
172
     1
173
     0
174
     0
175
     0
176
     0
177
     0
178
     0
270
     2
271
     2
272
     2
273
     2
274
     3
340
71
275
     0
280
     0
281
     0
282
     0
283
     0
284
     8
285
     0
286
     0
287
     3
288
     0
  0
ENDTAB
  0
TABLE
  2
BLOCK_RECORD
  5
A01
330
0
100
AcDbSymbolTable
  70
5
  0
BLOCK_RECORD
  5
A02
330
A01
100
AcDbSymbolTableRecord
100
AcDbBlockTableRecord
  2
*MODEL_SPACE
  0
BLOCK_RECORD
  5
A03
330
A01
100
AcDbSymbolTableRecord
100
AcDbBlockTableRecord
  2
*PAPER_SPACE
  0
ENDTAB
  0
ENDSEC
  0
SECTION
  2
BLOCKS
  0
BLOCK
  5
A04
330
A02
100
AcDbEntity
  8
0
100
AcDbBlockBegin
  2
*MODEL_SPACE
 70
   0
 10
0
 20
0
 30
0
  3
*MODEL_SPACE
  1
 
  0
ENDBLK
  5
A05
330
A02
100
AcDbEntity
  8
0
100
AcDbBlockEnd
  0
BLOCK
  5
A06
330
A03
100
AcDbEntity
 67
1
  8
0
100
AcDbBlockBegin
  2
*PAPER_SPACE
 70
   0
 10
0
 20
0
 30
0
  3
*PAPER_SPACE
  1
 
  0
ENDBLK
  5
A07
330
A03
100
AcDbEntity
 67
    1
  8
0
100
AcDbBlockEnd
  0
ENDSEC
  0
SECTION
  2
ENTITIES
  0
SPLINE
  5
A08
330
A02
100
AcDbEntity
  8
View102
100
AcDbSpline
210
0
220
0
230
1
 70
8
 71
3
 72
80
 73
76
 74
0
 40
0.000000000
 40
0.000000000
 40
0.000000000
 40
0.000000000
 40
0.040000000
 40
0.040000000
 40
0.040000000
 40
0.080000000
 40
0.080000000
 40
0.080000000
 40
0.120000000
 40
0.120000000
 40
0.120000000
 40
0.160000000
 40
0.160000000
 40
0.160000000
 40
0.200000000
 40
0.200000000
 40
0.200000000
 40
0.240000000
 40
0.240000000
 40
0.240000000
 40
0.280000000
 40
0.280000000
 40
0.280000000
 40
0.320000000
 40
0.320000000
 40
0.320000000
 40
0.360000000
 40
0.360000000
 40
0.360000000
 40
0.400000000
 40
0.400000000
 40
0.400000000
 40
0.440000000
 40
0.440000000
 40
0.440000000
 40
0.480000000
 40
0.480000000
 40
0.480000000
 40
0.520000000
 40
0.520000000
 40
0.520000000
 40
0.560000000
 40
0.560000000
 40
0.560000000
 40
0.600000000
 40
0.600000000
 40
0.600000000
 40
0.640000000
 40
0.640000000
 40
0.640000000
 40
0.680000000
 40
0.680000000
 40
0.680000000
 40
0.720000000
 40
0.720000000
 40
0.720000000
 40
0.760000000
 40
0.760000000
 40
0.760000000
 40
0.800000000
 40
0.800000000
 40
0.800000000
 40
0.840000000
 40
0.840000000
 40
0.840000000
 40
0.880000000
 40
0.880000000
 40
0.880000000
 40
0.920000000
 40
0.920000000
 40
0.920000000
 40
0.960000000
 40
0.960000000
 40
0.960000000
 40
1.000000000
 40
1.000000000
 40
1.000000000
 40
1.000000000
 10
388.738487892
 20
612.277482243
 30
0.000000000
 10
389.173987892
 20
615.702897243
 30
0.000000000
 10
390.291737892
 20
617.502679743
 30
0.000000000
 10
391.485029558
 20
618.964313493
 30
0.000000000
 10
392.678321225
 20
620.425947243
 30
0.000000000
 10
393.947154558
 20
621.549432243
 30
0.000000000
 10
395.428237892
 20
622.624018910
 30
0.000000000
 10
396.909321225
 20
623.698605577
 30
0.000000000
 10
398.602654558
 20
624.724293910
 30
0.000000000
 10
400.591821225
 20
625.760263077
 30
0.000000000
 10
402.580987892
 20
626.796232243
 30
0.000000000
 10
404.865987892
 20
627.842482243
 30
0.000000000
 10
407.465321225
 20
628.869048910
 30
0.000000000
 10
410.064654558
 20
629.895615577
 30
0.000000000
 10
412.978321225
 20
630.902498910
 30
0.000000000
 10
416.076071225
 20
631.831923910
 30
0.000000000
 10
419.173821225
 20
632.761348910
 30
0.000000000
 10
422.455654558
 20
633.613315577
 30
0.000000000
 10
425.950321225
 20
634.397582243
 30
0.000000000
 10
429.444987892
 20
635.181848910
 30
0.000000000
 10
433.152487892
 20
635.898415577
 30
0.000000000
 10
437.164987892
 20
636.547273910
 30
0.000000000
 10
441.177487892
 20
637.196132243
 30
0.000000000
 10
445.494987892
 20
637.777282243
 30
0.000000000
 10
449.617987892
 20
638.256548910
 30
0.000000000
 10
453.740987892
 20
638.735815577
 30
0.000000000
 10
457.669487892
 20
639.113198910
 30
0.000000000
 10
462.233237892
 20
639.427965577
 30
0.000000000
 10
466.796987892
 20
639.742732243
 30
0.000000000
 10
471.995987892
 20
639.994882243
 30
0.000000000
 10
476.912937892
 20
640.145148910
 30
0.000000000
 10
481.829887892
 20
640.295415577
 30
0.000000000
 10
486.464787892
 20
640.343798910
 30
0.000000000
 10
490.579104558
 20
640.314965577
 30
0.000000000
 10
494.693421225
 20
640.286132243
 30
0.000000000
 10
498.287154558
 20
640.180082243
 30
0.000000000
 10
501.095187892
 20
640.107707243
 30
0.000000000
 10
503.903221225
 20
640.035332243
 30
0.000000000
 10
505.925554558
 20
639.996632243
 30
0.000000000
 10
508.470404558
 20
639.885357243
 30
0.000000000
 10
511.015254558
 20
639.774082243
 30
0.000000000
 10
514.082621225
 20
639.590232243
 30
0.000000000
 10
518.056004558
 20
639.329082243
 30
0.000000000
 10
522.029387892
 20
639.067932243
 30
0.000000000
 10
526.908787892
 20
638.729482243
 30
0.000000000
 10
530.617717892
 20
638.463473910
 30
0.000000000
 10
534.326647892
 20
638.197465577
 30
0.000000000
 10
536.865107892
 20
638.003898910
 30
0.000000000
 10
540.511232892
 20
637.665032243
 30
0.000000000
 10
544.157357892
 20
637.326165577
 30
0.000000000
 10
548.911147892
 20
636.841998910
 30
0.000000000
 10
553.218451225
 20
636.372523910
 30
0.000000000
 10
557.525754558
 20
635.903048910
 30
0.000000000
 10
561.386571225
 20
635.448265577
 30
0.000000000
 10
565.878021225
 20
634.891590577
 30
0.000000000
 10
570.369471225
 20
634.334915577
 30
0.000000000
 10
575.491554558
 20
633.676348910
 30
0.000000000
 10
581.145654558
 20
632.901732243
 30
0.000000000
 10
586.799754558
 20
632.127115577
 30
0.000000000
 10
592.985871225
 20
631.236448910
 30
0.000000000
 10
598.334762892
 20
630.418248910
 30
0.000000000
 10
603.683654558
 20
629.600048910
 30
0.000000000
 10
608.195321225
 20
628.854315577
 30
0.000000000
 10
613.602154558
 20
627.919690577
 30
0.000000000
 10
619.008987892
 20
626.985065577
 30
0.000000000
 10
625.310987892
 20
625.861548910
 30
0.000000000
 10
631.859987892
 20
624.626790577
 30
0.000000000
 10
638.408987892
 20
623.392032243
 30
0.000000000
 10
645.204987892
 20
622.046032243
 30
0.000000000
 10
651.134487892
 20
620.830987243
 30
0.000000000
 10
657.063987892
 20
619.615942243
 30
0.000000000
 10
662.126987892
 20
618.531852243
 30
0.000000000
 10
667.271112892
 20
617.409232243
 30
0.000000000
 10
672.415237892
 20
616.286612243
 30
0.000000000
 10
677.640487892
 20
615.125462243
 30
0.000000000
 10
690.044987892
 20
612.161382243
 30
0.000000000
  0
SPLINE
  5
A09
330
A02
100
AcDbEntity
  8
View102
100
AcDbSpline
210
0
220
0
230
1
 70
8
 71
3
 72
80
 73
76
 74
0
 40
0.000000000
 40
0.000000000
 40
0.000000000
 40
0.000000000
 40
0.040000000
 40
0.040000000
 40
0.040000000
 40
0.080000000
 40
0.080000000
 40
0.080000000
 40
0.120000000
 40
0.120000000
 40
0.120000000
 40
0.160000000
 40
0.160000000
 40
0.160000000
 40
0.200000000
 40
0.200000000
 40
0.200000000
 40
0.240000000
 40
0.240000000
 40
0.240000000
 40
0.280000000
 40
0.280000000
 40
0.280000000
 40
0.320000000
 40
0.320000000
 40
0.320000000
 40
0.360000000
 40
0.360000000
 40
0.360000000
 40
0.400000000
 40
0.400000000
 40
0.400000000
 40
0.440000000
 40
0.440000000
 40
0.440000000
 40
0.480000000
 40
0.480000000
 40
0.480000000
 40
0.520000000
 40
0.520000000
 40
0.520000000
 40
0.560000000
 40
0.560000000
 40
0.560000000
 40
0.600000000
 40
0.600000000
 40
0.600000000
 40
0.640000000
 40
0.640000000
 40
0.640000000
 40
0.680000000
 40
0.680000000
 40
0.680000000
 40
0.720000000
 40
0.720000000
 40
0.720000000
 40
0.760000000
 40
0.760000000
 40
0.760000000
 40
0.800000000
 40
0.800000000
 40
0.800000000
 40
0.840000000
 40
0.840000000
 40
0.840000000
 40
0.880000000
 40
0.880000000
 40
0.880000000
 40
0.920000000
 40
0.920000000
 40
0.920000000
 40
0.960000000
 40
0.960000000
 40
0.960000000
 40
1.000000000
 40
1.000000000
 40
1.000000000
 40
1.000000000
 10
388.738487892
 20
612.277482243
 30
0.000000000
 10
389.813487892
 20
608.995132243
 30
0.000000000
 10
391.266237892
 20
607.436932243
 30
0.000000000
 10
392.688696225
 20
606.231632243
 30
0.000000000
 10
394.111154558
 20
605.026332243
 30
0.000000000
 10
395.503321225
 20
604.173932243
 30
0.000000000
 10
397.162071225
 20
603.374907243
 30
0.000000000
 10
398.820668447
 20
602.576482243
 30
0.000000000
 10
400.746307336
 20
601.829632243
 30
0.000000000
 10
402.938987892
 20
601.134357243
 30
0.000000000
 10
405.131821225
 20
600.438482243
 30
0.000000000
 10
407.592154558
 20
599.792382243
 30
0.000000000
 10
409.932237892
 20
599.269573910
 30
0.000000000
 10
412.272321225
 20
598.746765577
 30
0.000000000
 10
414.492154558
 20
598.347248910
 30
0.000000000
 10
416.629154558
 20
598.003698910
 30
0.000000000
 10
418.766154558
 20
597.660148910
 30
0.000000000
 10
420.820321225
 20
597.372565577
 30
0.000000000
 10
422.754737892
 20
597.114232243
 30
0.000000000
 10
424.689154558
 20
596.855898910
 30
0.000000000
 10
426.503821225
 20
596.626815577
 30
0.000000000
 10
429.218737892
 20
596.394890577
 30
0.000000000
 10
431.933654558
 20
596.162965577
 30
0.000000000
 10
435.548821225
 20
595.928198910
 30
0.000000000
 10
439.385487892
 20
595.734257243
 30
0.000000000
 10
443.222154558
 20
595.540315577
 30
0.000000000
 10
447.280321225
 20
595.387198910
 30
0.000000000
 10
451.396904558
 20
595.301832243
 30
0.000000000
 10
455.513487892
 20
595.216465577
 30
0.000000000
 10
459.688487892
 20
595.198848910
 30
0.000000000
 10
464.673404558
 20
595.245715577
 30
0.000000000
 10
469.658321225
 20
595.292582243
 30
0.000000000
 10
475.453154558
 20
595.403932243
 30
0.000000000
 10
480.637679558
 20
595.530123910
 30
0.000000000
 10
485.822204558
 20
595.656315577
 30
0.000000000
 10
490.396421225
 20
595.797348910
 30
0.000000000
 10
494.759429558
 20
595.964773910
 30
0.000000000
 10
499.122437892
 20
596.132198910
 30
0.000000000
 10
503.274237892
 20
596.326015577
 30
0.000000000
 10
507.698671225
 20
596.549198910
 30
0.000000000
 10
512.123104558
 20
596.772382243
 30
0.000000000
 10
516.820171225
 20
597.024932243
 30
0.000000000
 10
521.215222892
 20
597.277490577
 30
0.000000000
 10
525.610274558
 20
597.530048910
 30
0.000000000
 10
529.703311225
 20
597.782615577
 30
0.000000000
 10
533.934086225
 20
598.064582243
 30
0.000000000
 10
538.164861225
 20
598.346548910
 30
0.000000000
 10
542.533374558
 20
598.657915577
 30
0.000000000
 10
546.925431225
 20
598.969290577
 30
0.000000000
 10
551.317487892
 20
599.280665577
 30
0.000000000
 10
555.733087892
 20
599.592048910
 30
0.000000000
 10
560.083904558
 20
599.918107243
 30
0.000000000
 10
564.436607336
 20
600.244166966
 30
0.000000000
 10
568.718868447
 20
600.584897521
 30
0.000000000
 10
572.930687892
 20
600.940298910
 30
0.000000000
 10
577.140621225
 20
601.295698910
 30
0.000000000
 10
581.274454558
 20
601.665765577
 30
0.000000000
 10
585.293654558
 20
602.009348910
 30
0.000000000
 10
589.312854558
 20
602.352932243
 30
0.000000000
 10
593.217421225
 20
602.670032243
 30
0.000000000
 10
597.348037892
 20
603.022390577
 30
0.000000000
 10
601.478654558
 20
603.374748910
 30
0.000000000
 10
605.835321225
 20
603.762365577
 30
0.000000000
 10
610.183237892
 20
604.167790577
 30
0.000000000
 10
614.531154558
 20
604.573215577
 30
0.000000000
 10
618.870321225
 20
604.996448910
 30
0.000000000
 10
623.790404558
 20
605.457590577
 30
0.000000000
 10
628.710487892
 20
605.918732243
 30
0.000000000
 10
634.211487892
 20
606.417782243
 30
0.000000000
 10
640.343987892
 20
607.002107243
 30
0.000000000
 10
646.476487892
 20
607.586432243
 30
0.000000000
 10
653.240487892
 20
608.256032243
 30
0.000000000
 10
661.136612892
 20
609.044694743
 30
0.000000000
 10
669.032737892
 20
609.833357243
 30
0.000000000
 10
678.060987892
 20
610.741082243
 30
0.000000000
 10
690.044987892
 20
612.161382243
 30
0.000000000
  0
ENDSEC
  0
SECTION
  2
OBJECTS
  0
DICTIONARY
  5
F000
330
0
100
AcDbDictionary
  3
ACAD_GROUP
350
F001
  0
DICTIONARY
  5
F001
330
F000
100
AcDbDictionary
  0
ENDSEC
  0
EOF